<svg width="348" height="205" viewBox="0 0 348 205" fill="none" xmlns="http://www.w3.org/2000/svg">
<path d="M347.848 118.828C347.848 120.947 346.654 122.886 344.762 123.84L240.073 176.573C237.92 177.658 235.315 177.246 233.602 175.55C231.888 173.854 231.449 171.253 232.512 169.089L242.556 148.629L165.82 183.945C163.685 184.928 161.162 184.475 159.502 182.811C157.842 181.146 157.395 178.622 158.384 176.488L171.939 147.246L26.7012 204.057C24.3669 204.97 21.7095 204.224 20.1915 202.229C18.6735 200.235 18.663 197.474 20.1651 195.468L70.0088 128.88L7.17291 147.083C5.09047 147.686 2.84616 147.036 1.40924 145.412C-0.0273691 143.789 -0.400315 141.483 0.451229 139.489L59.4405 1.40625L59.5264 1.21484C60.4502 -0.742265 62.424 -1.99992 64.6006 -2H347.848V118.828Z" fill="#D6FF25"/>
</svg>
