<svg width="91" height="45" viewBox="0 0 91 45" fill="none" xmlns="http://www.w3.org/2000/svg">
<path d="M90.3848 20.3669C90.3848 20.9892 90.0206 21.5548 89.4541 21.8123L61.041 34.7C60.4365 34.9742 59.7249 34.8426 59.2578 34.3708C58.791 33.8991 58.667 33.1864 58.9473 32.5847L60.7236 28.7683L38.9453 38.9382C38.3432 39.2193 37.6293 39.0953 37.1572 38.6277C36.6852 38.16 36.5547 37.4473 36.8301 36.8425L40.5537 28.6638L6.73145 43.9001C6.13119 44.1705 5.42635 44.0415 4.95996 43.5769C4.49367 43.1122 4.36266 42.4076 4.63086 41.8064L12.8271 23.4324L2.21484 28.0046C1.61517 28.263 0.918243 28.1279 0.458984 27.6638C-0.000193575 27.1995 -0.128225 26.5009 0.136719 25.9041L10.75 2.00366C11.0047 1.43099 11.5734 1.0604 12.2002 1.0603H90.3848V20.3669ZM88.7979 20.3669H88.7988V2.64722H88.7979V20.3669Z" fill="#18191F"/>
<path d="M22.3443 13.1933V16.8997H20.903V19H16.8671V16.8997H10.8133V13.1933L14.7874 4.58624H19.4616L15.4257 13.1933H16.8671V11.1754H20.903V13.1933H22.3443ZM31.0996 4.58624H35.2178V19H31.0996V13.6875H27.5991V19H23.4809V4.58624H27.5991V9.69283H31.0996V4.58624ZM45.6147 19L45.1205 17.1468H40.9611L40.4669 19H36.0398L40.6316 4.58624H45.45L50.0418 19H45.6147ZM41.8465 13.8522H44.2351L43.0408 9.42514L41.8465 13.8522ZM57.3674 19.3295C55.1984 19.3295 53.4002 18.6088 51.9725 17.1674C50.5449 15.726 49.831 13.9346 49.831 11.7931C49.831 9.65164 50.5449 7.86022 51.9725 6.41884C53.4002 4.97747 55.1984 4.25678 57.3674 4.25678C58.6989 4.25678 59.9275 4.57251 61.0532 5.20397C62.1788 5.83543 63.0574 6.68653 63.6888 7.75727L60.106 9.81637C59.8726 9.34964 59.5088 8.979 59.0147 8.70446C58.5205 8.42991 57.9714 8.29263 57.3674 8.29263C56.3515 8.29263 55.5279 8.62209 54.8964 9.28101C54.265 9.93992 53.9493 10.7773 53.9493 11.7931C53.9493 12.8089 54.265 13.6463 54.8964 14.3052C55.5279 14.9641 56.3515 15.2936 57.3674 15.2936C57.9851 15.2936 58.5342 15.1563 59.0147 14.8818C59.5088 14.6072 59.8726 14.2297 60.106 13.7493L63.6888 15.8084C63.0574 16.8928 62.1788 17.7508 61.0532 18.3823C59.9275 19.0137 58.6989 19.3295 57.3674 19.3295ZM76.9957 19H72.4244L68.8416 12.8227V19H64.7234V4.58624H68.8416V10.3517L72.2185 4.58624H76.7898L72.5068 11.5872L76.9957 19ZM82.3796 19.3295C80.8147 19.3295 79.5106 19.0069 78.4673 18.3617C77.424 17.7028 76.7239 16.8173 76.367 15.7054L79.8881 13.6669C80.3685 14.8886 81.2334 15.4995 82.4826 15.4995C83.416 15.4995 83.8827 15.2524 83.8827 14.7582C83.8827 14.621 83.8484 14.4974 83.7798 14.3876C83.7112 14.2778 83.5807 14.1817 83.3886 14.0993C83.1964 14.017 83.0248 13.9552 82.8738 13.914C82.7365 13.8591 82.4894 13.7836 82.1325 13.6875C81.7756 13.5914 81.5079 13.5159 81.3295 13.461C78.4604 12.5962 77.0259 11.0518 77.0259 8.828C77.0259 7.51017 77.4995 6.41884 78.4467 5.55402C79.4076 4.68919 80.6637 4.25678 82.2149 4.25678C83.4366 4.25678 84.5279 4.54505 85.4889 5.12161C86.4635 5.69816 87.1773 6.52866 87.6303 7.61313L84.2122 9.61046C83.8141 8.59464 83.1552 8.08672 82.2355 8.08672C81.8785 8.08672 81.604 8.16222 81.4118 8.31322C81.2334 8.4505 81.1441 8.62895 81.1441 8.84859C81.1441 9.1506 81.302 9.38396 81.6177 9.54869C81.9472 9.71342 82.5718 9.92619 83.4915 10.187C84.1779 10.3929 84.7407 10.592 85.18 10.7842C85.6193 10.9626 86.0791 11.2234 86.5596 11.5666C87.04 11.8961 87.397 12.3285 87.6303 12.8639C87.8774 13.3855 88.001 14.0032 88.001 14.7171C88.001 16.1859 87.4931 17.3253 86.4772 18.1352C85.4751 18.9314 84.1092 19.3295 82.3796 19.3295Z" fill="white"/>
</svg>
