<svg width="47" height="45" viewBox="0 0 47 45" fill="none" xmlns="http://www.w3.org/2000/svg">
<path d="M46.208 27.4519C46.208 27.8011 46.0469 28.1315 45.7715 28.3464L36.1494 35.8532C35.8078 36.1198 35.3436 36.1683 34.9541 35.9782C34.565 35.7881 34.3176 35.3928 34.3174 34.9597V33.2653L25.8311 39.1013C25.4491 39.3638 24.9453 39.3672 24.5596 39.1101C24.174 38.8529 23.9838 38.3869 24.0791 37.9333L24.8584 34.2263L5.51956 44.6179C5.10317 44.8415 4.59102 44.7837 4.23538 44.4724C3.87977 44.161 3.75523 43.6608 3.92191 43.2185L9.03616 29.6501L1.61136 33.1013C1.18692 33.2983 0.684909 33.2138 0.347687 32.8894C0.0105229 32.5648 -0.0927605 32.0662 0.0879211 31.6345L11.6338 4.05244C11.8103 3.63095 12.2228 3.35635 12.6797 3.35616H46.208V27.4519Z" fill="#18191F"/>
<mask id="path-2-outside-1_43_423" maskUnits="userSpaceOnUse" x="8.47189" y="5.00002" width="36" height="22" fill="black">
<rect fill="white" x="8.47189" y="5.00002" width="36" height="22"/>
<path d="M25.7537 17.9448V23.0864H23.7542V26H18.1555V23.0864H9.75754V17.9448L15.2705 6.00482H21.7547L16.156 17.9448H18.1555V15.1455H23.7542V17.9448H25.7537ZM37.8992 6.00482H43.6121V26H37.8992V18.6304H33.0432V26H27.3303V6.00482H33.0432V13.0888H37.8992V6.00482Z"/>
</mask>
<path d="M25.7537 17.9448V23.0864H23.7542V26H18.1555V23.0864H9.75754V17.9448L15.2705 6.00482H21.7547L16.156 17.9448H18.1555V15.1455H23.7542V17.9448H25.7537ZM37.8992 6.00482H43.6121V26H37.8992V18.6304H33.0432V26H27.3303V6.00482H33.0432V13.0888H37.8992V6.00482Z" fill="white"/>
<path d="M25.7537 17.9448H26.3162V17.3823H25.7537V17.9448ZM25.7537 23.0864V23.6489H26.3162V23.0864H25.7537ZM23.7542 23.0864V22.5239H23.1917V23.0864H23.7542ZM23.7542 26V26.5625H24.3167V26H23.7542ZM18.1555 26H17.593V26.5625H18.1555V26ZM18.1555 23.0864H18.718V22.5239H18.1555V23.0864ZM9.75754 23.0864H9.19503V23.6489H9.75754V23.0864ZM9.75754 17.9448L9.24684 17.709L9.19503 17.8212V17.9448H9.75754ZM15.2705 6.00482V5.44231H14.9106L14.7598 5.76902L15.2705 6.00482ZM21.7547 6.00482L22.264 6.24363L22.6397 5.44231H21.7547V6.00482ZM16.156 17.9448L15.6467 17.706L15.271 18.5073H16.156V17.9448ZM18.1555 17.9448V18.5073H18.718V17.9448H18.1555ZM18.1555 15.1455V14.583H17.593V15.1455H18.1555ZM23.7542 15.1455H24.3167V14.583H23.7542V15.1455ZM23.7542 17.9448H23.1917V18.5073H23.7542V17.9448ZM25.7537 17.9448H25.1912V23.0864H25.7537H26.3162V17.9448H25.7537ZM25.7537 23.0864V22.5239H23.7542V23.0864V23.6489H25.7537V23.0864ZM23.7542 23.0864H23.1917V26H23.7542H24.3167V23.0864H23.7542ZM23.7542 26V25.4375H18.1555V26V26.5625H23.7542V26ZM18.1555 26H18.718V23.0864H18.1555H17.593V26H18.1555ZM18.1555 23.0864V22.5239H9.75754V23.0864V23.6489H18.1555V23.0864ZM9.75754 23.0864H10.32V17.9448H9.75754H9.19503V23.0864H9.75754ZM9.75754 17.9448L10.2682 18.1806L15.7812 6.24062L15.2705 6.00482L14.7598 5.76902L9.24684 17.709L9.75754 17.9448ZM15.2705 6.00482V6.56733H21.7547V6.00482V5.44231H15.2705V6.00482ZM21.7547 6.00482L21.2454 5.76601L15.6467 17.706L16.156 17.9448L16.6653 18.1836L22.264 6.24363L21.7547 6.00482ZM16.156 17.9448V18.5073H18.1555V17.9448V17.3823H16.156V17.9448ZM18.1555 17.9448H18.718V15.1455H18.1555H17.593V17.9448H18.1555ZM18.1555 15.1455V15.708H23.7542V15.1455V14.583H18.1555V15.1455ZM23.7542 15.1455H23.1917V17.9448H23.7542H24.3167V15.1455H23.7542ZM23.7542 17.9448V18.5073H25.7537V17.9448V17.3823H23.7542V17.9448ZM37.8992 6.00482V5.44231H37.3367V6.00482H37.8992ZM43.6121 6.00482H44.1746V5.44231H43.6121V6.00482ZM43.6121 26V26.5625H44.1746V26H43.6121ZM37.8992 26H37.3367V26.5625H37.8992V26ZM37.8992 18.6304H38.4617V18.0678H37.8992V18.6304ZM33.0432 18.6304V18.0678H32.4807V18.6304H33.0432ZM33.0432 26V26.5625H33.6057V26H33.0432ZM27.3303 26H26.7678V26.5625H27.3303V26ZM27.3303 6.00482V5.44231H26.7678V6.00482H27.3303ZM33.0432 6.00482H33.6057V5.44231H33.0432V6.00482ZM33.0432 13.0888H32.4807V13.6513H33.0432V13.0888ZM37.8992 13.0888V13.6513H38.4617V13.0888H37.8992ZM37.8992 6.00482V6.56733H43.6121V6.00482V5.44231H37.8992V6.00482ZM43.6121 6.00482H43.0496V26H43.6121H44.1746V6.00482H43.6121ZM43.6121 26V25.4375H37.8992V26V26.5625H43.6121V26ZM37.8992 26H38.4617V18.6304H37.8992H37.3367V26H37.8992ZM37.8992 18.6304V18.0678H33.0432V18.6304V19.1929H37.8992V18.6304ZM33.0432 18.6304H32.4807V26H33.0432H33.6057V18.6304H33.0432ZM33.0432 26V25.4375H27.3303V26V26.5625H33.0432V26ZM27.3303 26H27.8928V6.00482H27.3303H26.7678V26H27.3303ZM27.3303 6.00482V6.56733H33.0432V6.00482V5.44231H27.3303V6.00482ZM33.0432 6.00482H32.4807V13.0888H33.0432H33.6057V6.00482H33.0432ZM33.0432 13.0888V13.6513H37.8992V13.0888V12.5263H33.0432V13.0888ZM37.8992 13.0888H38.4617V6.00482H37.8992H37.3367V13.0888H37.8992Z" fill="#18191F" mask="url(#path-2-outside-1_43_423)"/>
</svg>
